# This file uses centimeters as units for non-parametric coordinates.

mtllib fence_obj.mtl
g default
v 0.000000 0.000000 1.000000
v 0.000000 2.000000 1.000000
v 0.000000 4.000000 1.000000
v 0.000000 6.000000 1.000000
v 0.000000 8.000000 1.000000
v 0.000000 10.000000 1.000000
v 0.000000 10.000000 0.000000
v 0.000000 8.000000 0.000000
v 0.000000 6.000000 0.000000
v 0.000000 4.000000 0.000000
v 0.000000 2.000000 0.000000
v 0.000000 0.000000 0.000000
v 0.000000 2.000000 0.700000
v 0.000000 2.000000 0.300000
v 0.000000 4.000000 0.700000
v 0.000000 4.000000 0.300000
v 0.000000 6.000000 0.700000
v 0.000000 6.000000 0.300000
v 0.000000 8.000000 0.700000
v 0.000000 8.000000 0.300000
v -15.000000 2.000000 0.700000
v -15.000000 2.000000 0.300000
v -15.000000 4.000000 0.700000
v -15.000000 4.000000 0.300000
v -15.000000 6.000000 0.700000
v -15.000000 6.000000 0.300000
v -15.000000 8.000000 0.700000
v -15.000000 8.000000 0.300000
v 1.000000 0.000000 0.900010
v 0.986604 0.000000 0.950005
v 0.950005 0.000000 0.986604
v 0.900010 0.000000 1.000000
v 0.900010 2.000000 1.000000
v 0.950005 2.000000 0.986604
v 0.986604 2.000000 0.950005
v 1.000000 2.000000 0.900010
v 0.900010 4.000000 1.000000
v 0.950005 4.000000 0.986604
v 0.986604 4.000000 0.950005
v 1.000000 4.000000 0.900010
v 0.900010 6.000000 1.000000
v 0.950005 6.000000 0.986604
v 0.986604 6.000000 0.950005
v 1.000000 6.000000 0.900010
v 0.900010 8.000000 1.000000
v 0.950005 8.000000 0.986604
v 0.986604 8.000000 0.950005
v 1.000000 8.000000 0.900010
v 1.000000 10.000000 0.900010
v 0.900010 10.000000 1.000000
v 0.950005 10.000000 0.986604
v 0.986604 10.000000 0.950005
v 0.986604 10.000000 0.049995
v 0.950005 10.000000 0.013396
v 0.900010 10.000000 0.000000
v 1.000000 10.000000 0.099990
v 0.900010 8.000000 0.000000
v 0.950005 8.000000 0.013396
v 0.986604 8.000000 0.049995
v 1.000000 8.000000 0.099990
v 0.900010 6.000000 0.000000
v 0.950005 6.000000 0.013396
v 0.986604 6.000000 0.049995
v 1.000000 6.000000 0.099990
v 0.900010 4.000000 0.000000
v 0.950005 4.000000 0.013396
v 0.986604 4.000000 0.049995
v 1.000000 4.000000 0.099990
v 0.900010 2.000000 0.000000
v 0.950005 2.000000 0.013396
v 0.986604 2.000000 0.049995
v 1.000000 2.000000 0.099990
v 1.000000 0.000000 0.099990
v 0.900010 0.000000 0.000000
v 0.950005 0.000000 0.013396
v 0.986604 0.000000 0.049995
v 0.000000 9.694641 0.680002
v 0.000000 9.680002 0.694642
v 0.000000 9.660004 0.700000
v 0.000000 9.719997 0.719998
v 0.000000 9.700000 0.660004
v -15.000000 9.700000 0.660004
v -15.000000 9.660004 0.700000
v -15.000000 9.680002 0.694642
v -15.000000 9.694641 0.680002
v 0.000000 9.680002 0.305358
v 0.000000 9.694641 0.319998
v 0.000000 9.700000 0.339996
v 0.000000 9.719997 0.280002
v 0.000000 9.660004 0.300000
v -15.000000 9.660004 0.300000
v -15.000000 9.700000 0.339996
v -15.000000 9.694641 0.319998
v -15.000000 9.680002 0.305358
v 0.000000 0.305359 0.319998
v 0.000000 0.319998 0.305358
v 0.000000 0.339996 0.300000
v 0.000000 0.280002 0.280002
v 0.000000 0.300000 0.339996
v -15.000000 0.339996 0.300000
v -15.000000 0.319998 0.305358
v -15.000000 0.305359 0.319998
v -15.000000 0.300000 0.339996
v 0.000000 0.319998 0.694642
v 0.000000 0.305359 0.680002
v 0.000000 0.300000 0.660004
v 0.000000 0.280002 0.719998
v 0.000000 0.339996 0.700000
v -15.000000 0.339996 0.700000
v -15.000000 0.300000 0.660004
v -15.000000 0.305359 0.680002
v -15.000000 0.319998 0.694642
vt 0.859391 0.287792
vt 0.859391 0.194978
vt 0.859391 0.102165
vt 0.022220 0.086450
vt 0.717065 0.178948
vt 0.022220 0.179022
vt 0.717065 0.271668
vt 0.022220 0.271594
vt 0.717065 0.364388
vt 0.971647 0.104055
vt 0.021664 0.178948
vt 0.971647 0.195724
vt 0.021664 0.271668
vt 0.971647 0.287393
vt 0.924856 0.009846
vt 0.961828 0.471995
vt 0.901034 0.011006
vt 0.901034 0.103157
vt 0.859566 0.103157
vt 0.901034 0.195309
vt 0.859566 0.195309
vt 0.901034 0.287461
vt 0.859566 0.287461
vt 0.901034 0.379613
vt 0.859566 0.379613
vt 0.901158 0.009352
vt 0.901158 0.102165
vt 0.901158 0.194978
vt 0.901158 0.287792
vt 0.901158 0.380605
vt 0.859391 0.380605
vt 0.876285 0.516206
vt 0.961829 0.102276
vt 0.924856 0.102276
vt 0.961828 0.194706
vt 0.924856 0.194706
vt 0.961828 0.287135
vt 0.924856 0.287135
vt 0.961829 0.379565
vt 0.924856 0.379565
vt 0.052536 0.527460
vt 0.821286 0.098203
vt 0.821555 0.098540
vt 0.053599 0.528318
vt 0.901034 0.471764
vt 0.901158 0.473418
vt 0.751375 0.098540
vt 0.747726 0.095040
vt 0.903419 0.103157
vt 0.905804 0.103157
vt 0.903419 0.195309
vt 0.905804 0.195309
vt 0.903419 0.287461
vt 0.905804 0.287461
vt 0.903419 0.379613
vt 0.905804 0.379613
vt 0.903419 0.471764
vt 0.905804 0.471764
vt 0.751684 0.098203
vt 0.748060 0.094737
vt 0.903560 0.102165
vt 0.905962 0.102165
vt 0.903560 0.194978
vt 0.905962 0.194978
vt 0.903560 0.287792
vt 0.905962 0.287792
vt 0.903560 0.380605
vt 0.905962 0.380605
vt 0.903560 0.473418
vt 0.905962 0.473418
vt 0.872368 0.512967
vt 0.022220 0.364166
vt 0.971647 0.379062
vt 0.040227 0.969735
vt 0.988173 0.456858
vt 0.789355 0.476384
vt 0.971647 0.455154
vt 0.025822 0.507760
vt 0.040227 0.972481
vt 0.025822 0.490034
vt 0.039124 0.540112
vt 0.021664 0.364388
vt 0.721670 0.510641
vt 0.721671 0.492915
vt 0.038061 0.971314
vt 0.040227 0.970648
vt 0.721670 0.509681
vt 0.721670 0.508721
vt 0.039124 0.541588
vt 0.786845 0.476384
vt 0.721671 0.491955
vt 0.721671 0.490995
vt 0.717065 0.086228
vt 0.989734 0.104055
vt 0.039124 0.970386
vt 0.973209 0.026259
vt 0.789363 0.477355
vt 0.989734 0.027963
vt 0.730860 0.492719
vt 0.839821 0.477355
vt 0.730860 0.510914
vt 0.781334 0.477355
vt 0.016633 0.489762
vt 0.016633 0.507956
vt 0.834573 0.477355
vt 0.039124 0.971300
vt 0.016633 0.490747
vt 0.016633 0.491733
vt 0.784812 0.473144
vt 0.786719 0.477355
vt 0.016633 0.508942
vt 0.016633 0.509928
vt 0.730859 0.509928
vt 0.040227 0.543798
vt 0.730859 0.508942
vt 0.730859 0.507956
vt 0.730860 0.491733
vt 0.831900 0.477355
vt 0.730860 0.490747
vt 0.022220 0.009615
vt 0.040227 0.619691
vt 0.025822 0.490994
vt 0.039124 0.542850
vt 0.025822 0.491955
vt 0.025822 0.492915
vt 0.025822 0.508721
vt 0.829386 0.476384
vt 0.025822 0.509681
vt 0.717065 0.441345
vt 0.039124 0.619103
vt 0.040227 0.893900
vt 0.039124 0.710849
vt 0.040227 0.802497
vt 0.039124 0.802595
vt 0.040227 0.711094
vt 0.039124 0.894340
vt 0.021664 0.009270
vt 0.989734 0.027046
vt 0.988793 0.026259
vt 0.987876 0.026259
vt 0.016633 0.492719
vt 0.972292 0.026259
vt 0.971647 0.027059
vt 0.971647 0.027976
vt 0.021664 0.086228
vt 0.831879 0.476384
vt 0.716509 0.441000
vt 0.971647 0.456071
vt 0.972589 0.456858
vt 0.973505 0.456858
vt 0.721671 0.507760
vt 0.989089 0.456858
vt 0.989734 0.456058
vt 0.989734 0.455142
vt 0.716509 0.364166
vt 0.989734 0.379062
vt 0.716509 0.271594
vt 0.989734 0.287393
vt 0.716509 0.179022
vt 0.989734 0.195724
vt 0.716509 0.086450
vt 0.721671 0.490034
vt 0.022220 0.441000
vt 0.025822 0.510641
vt 0.021664 0.441345
vt 0.016633 0.510914
vt 0.717065 0.009270
vt 0.730860 0.489762
vt 0.716509 0.009615
vt 0.829246 0.016536
vt 0.859566 0.011006
vt 0.052536 0.894340
vt 0.052536 0.802595
vt 0.052536 0.710849
vt 0.052536 0.619103
vt 0.859391 0.009352
vt 0.828913 0.016874
vt 0.053599 0.893900
vt 0.053599 0.802497
vt 0.053599 0.711094
vt 0.053599 0.619691
vt 0.040227 0.542883
vt 0.040227 0.541060
vt 0.836559 0.474196
vt 0.039124 0.973152
vt 0.041088 0.541589
vt 0.781880 0.476384
vt 0.747275 0.512967
vt 0.053599 0.985332
vt 0.836921 0.476384
vt 0.743358 0.516206
vt 0.052536 0.986189
vt 0.905962 0.009352
vt 0.755780 0.098203
vt 0.903560 0.009352
vt 0.748060 0.090645
vt 0.924856 0.471995
vt 0.825378 0.098203
vt 0.828914 0.094586
vt 0.828913 0.090490
vt 0.748060 0.016874
vt 0.859566 0.471764
vt 0.961828 0.009846
vt 0.825680 0.098540
vt 0.829246 0.094898
vt 0.829246 0.090769
vt 0.905804 0.011006
vt 0.755504 0.098540
vt 0.903419 0.011006
vt 0.747726 0.090914
vt 0.859391 0.473418
vt 0.747726 0.016536
vt 0.908364 0.380605
vt 0.908364 0.473418
vt 0.908364 0.287792
vt 0.908364 0.194978
vt 0.908364 0.102165
vt 0.908364 0.009352
vt 0.908189 0.379613
vt 0.908189 0.471764
vt 0.908189 0.287461
vt 0.908189 0.195309
vt 0.908189 0.103157
vt 0.908189 0.011006
vn -1.000000 -0.000000 0.000000
vn -1.000000 -0.000000 0.000000
vn -1.000000 0.000000 0.000000
vn -1.000000 0.000000 0.000000
vn -1.000000 0.000000 0.000000
vn -1.000000 0.000000 0.000000
vn -1.000000 0.000000 0.000000
vn -1.000000 0.000000 0.000000
vn -1.000000 0.000000 0.000000
vn -1.000000 0.000000 0.000000
vn -1.000000 0.000000 0.000000
vn -1.000000 0.000000 0.000000
vn -1.000000 0.000000 0.000000
vn -1.000000 0.000000 0.000000
vn -1.000000 0.000000 0.000000
vn -1.000000 0.000000 0.000000
vn -1.000000 0.000000 0.000000
vn -1.000000 0.000000 0.000000
vn -1.000000 0.000000 0.000000
vn -1.000000 0.000000 0.000000
vn -1.000000 0.000000 0.000000
vn -1.000000 0.000000 0.000000
vn -1.000000 0.000000 0.000000
vn -1.000000 0.000000 0.000000
vn -1.000000 0.000000 0.000000
vn -1.000000 0.000000 0.000000
vn -1.000000 0.000000 0.000000
vn -1.000000 0.000000 0.000000
vn -1.000000 0.000000 0.000000
vn -1.000000 0.000000 0.000000
vn -1.000000 0.000000 0.000000
vn -1.000000 0.000000 0.000000
vn -1.000000 -0.000000 0.000000
vn -1.000000 -0.000000 0.000000
vn -1.000000 0.000000 0.000000
vn -1.000000 -0.000000 0.000000
vn -1.000000 -0.000000 0.000000
vn -1.000000 -0.000000 0.000000
vn -1.000000 -0.000000 0.000000
vn -1.000000 0.000000 0.000000
vn 0.000000 -0.999876 -0.015759
vn 0.000000 -0.999876 -0.015759
vn 0.000000 -0.999876 0.015759
vn 0.000000 -0.999876 0.015759
vn 0.000000 -0.003190 0.999995
vn 0.000000 -0.003190 0.999995
vn 0.000000 0.000000 1.000000
vn 0.000000 0.000000 1.000000
vn 0.000000 0.000000 -1.000000
vn 0.000000 -0.003190 -0.999995
vn 0.000000 -0.003190 -0.999995
vn 0.000000 0.000000 -1.000000
vn 0.000000 0.000000 1.000000
vn 0.000000 0.000000 1.000000
vn 0.000000 0.000000 -1.000000
vn 0.000000 0.000000 -1.000000
vn 0.000000 0.000000 1.000000
vn 0.000000 0.000000 1.000000
vn 0.000000 0.000000 -1.000000
vn 0.000000 0.000000 -1.000000
vn 0.000000 0.000000 1.000000
vn 0.000000 0.000000 1.000000
vn 0.000000 0.000000 -1.000000
vn 0.000000 0.000000 -1.000000
vn 0.000000 0.003190 0.999995
vn 0.000000 0.003190 0.999995
vn 0.000000 0.999876 0.015759
vn 0.000000 0.999876 0.015759
vn 0.000000 0.999876 -0.015759
vn 0.000000 0.999876 -0.015759
vn 0.000000 0.003190 -0.999995
vn 0.000000 0.003190 -0.999995
vn 0.014100 0.000000 0.999901
vn 0.500000 0.000000 0.866025
vn 0.500000 0.000000 0.866025
vn 0.014100 0.000000 0.999901
vn 0.866025 0.000000 0.500000
vn 0.866025 0.000000 0.500000
vn 0.999876 0.000000 0.015758
vn 0.999876 0.000000 0.015758
vn 0.014100 0.000000 -0.999901
vn 0.258819 0.000000 -0.965926
vn 0.258819 0.000000 -0.965926
vn 0.014100 0.000000 -0.999901
vn 0.707107 0.000000 -0.707107
vn 0.866025 0.000000 -0.500000
vn 0.866025 0.000000 -0.500000
vn 0.707107 0.000000 -0.707107
vn 0.999876 0.000000 -0.015758
vn 0.999876 0.000000 -0.015758
vn 0.000000 0.000000 1.000000
vn 0.000000 0.000000 1.000000
vn 0.014100 0.000000 0.999901
vn 0.000000 0.000000 1.000000
vn 0.014100 0.000000 0.999901
vn 0.000000 0.000000 1.000000
vn 0.014100 0.000000 0.999901
vn 0.000000 0.000000 1.000000
vn 0.014100 0.000000 0.999901
vn 0.000000 0.000000 1.000000
vn 0.000000 0.000000 -1.000000
vn 0.000000 0.000000 -1.000000
vn 0.014100 0.000000 -0.999901
vn 0.000000 0.000000 -1.000000
vn 0.014100 0.000000 -0.999901
vn 0.000000 0.000000 -1.000000
vn 0.014100 0.000000 -0.999901
vn 0.000000 0.000000 -1.000000
vn 0.014100 0.000000 -0.999901
vn 0.000000 0.000000 -1.000000
vn 0.999876 0.000000 -0.015758
vn 0.999876 0.000000 -0.015758
vn 0.999876 0.000000 -0.015758
vn 0.999876 0.000000 0.015758
vn 0.999876 0.000000 -0.015758
vn 0.999876 0.000000 0.015758
vn 0.999876 0.000000 0.015758
vn 0.999876 0.000000 0.015758
vn 0.000000 1.000000 0.000000
vn 0.000000 1.000000 0.000000
vn 0.000000 1.000000 0.000000
vn 0.000000 1.000000 0.000000
vn 0.000000 1.000000 0.000000
vn 0.000000 1.000000 0.000000
vn 0.000000 1.000000 0.000000
vn 0.000000 1.000000 0.000000
vn 0.000000 1.000000 0.000000
vn 0.000000 1.000000 0.000000
vn 0.000000 -1.000000 0.000000
vn 0.000000 -1.000000 0.000000
vn 0.000000 -1.000000 0.000000
vn 0.000000 -1.000000 0.000000
vn 0.000000 -1.000000 0.000000
vn 0.000000 -1.000000 0.000000
vn 0.000000 -1.000000 0.000000
vn 0.000000 -1.000000 0.000000
vn 0.000000 -1.000000 0.000000
vn 0.000000 -1.000000 0.000000
vn 0.866025 0.000000 0.500000
vn 0.500000 0.000000 0.866025
vn 0.866025 0.000000 0.500000
vn 0.500000 0.000000 0.866025
vn 0.866025 0.000000 0.500000
vn 0.500000 0.000000 0.866025
vn 0.866025 0.000000 0.500000
vn 0.500000 0.000000 0.866025
vn 0.866025 0.000000 -0.500000
vn 0.258819 0.000000 -0.965926
vn 0.707107 0.000000 -0.707107
vn 0.866025 0.000000 -0.500000
vn 0.258819 0.000000 -0.965926
vn 0.707107 0.000000 -0.707107
vn 0.866025 0.000000 -0.500000
vn 0.258819 0.000000 -0.965926
vn 0.707107 0.000000 -0.707107
vn 0.866025 0.000000 -0.500000
vn 0.258819 0.000000 -0.965926
vn 0.707107 0.000000 -0.707107
vn 0.000000 0.258811 0.965928
vn 0.000000 0.258811 0.965928
vn 0.000000 0.707126 0.707088
vn 0.000000 0.866029 0.499994
vn 0.000000 0.866029 0.499994
vn 0.000000 0.707126 0.707088
vn 0.000000 0.866029 -0.499994
vn 0.000000 0.866029 -0.499994
vn 0.000000 0.707126 -0.707088
vn 0.000000 0.707126 -0.707088
vn 0.000000 0.258811 -0.965928
vn 0.000000 0.258811 -0.965928
vn -1.000000 0.000000 0.000000
vn -1.000000 0.000000 0.000000
vn -1.000000 0.000000 0.000000
vn -1.000000 0.000000 0.000000
vn -1.000000 0.000001 0.000000
vn -1.000000 0.000001 0.000000
vn -1.000000 0.000001 0.000000
vn -1.000000 0.000001 0.000000
vn -1.000000 0.000001 0.000000
vn -1.000000 0.000001 0.000000
vn -1.000000 0.000001 0.000000
vn -1.000000 0.000001 0.000000
vn 0.000000 -0.500001 -0.866025
vn 0.000000 -0.500001 -0.866025
vn 0.000000 -0.866024 -0.500003
vn 0.000000 -0.866024 -0.500003
vn 0.000000 -0.866023 0.500004
vn 0.000000 -0.866023 0.500004
vn 0.000000 -0.500001 0.866025
vn 0.000000 -0.500001 0.866025
vn -1.000000 0.000000 0.000000
vn -1.000000 0.000000 0.000000
vn -1.000000 0.000000 0.000000
vn -1.000000 0.000000 0.000000
vn -1.000000 -0.000001 0.000000
vn -1.000000 -0.000001 0.000000
vn -1.000000 -0.000001 0.000000
vn -1.000000 -0.000001 0.000000
vn -1.000000 -0.000001 0.000000
vn -1.000000 -0.000001 0.000000
vn -1.000000 -0.000001 0.000000
vn -1.000000 -0.000001 0.000000
s 1
g pCube1
usemtl initialShadingGroup
f 22/10/1 21/94/2 23/160/3 24/12/4
f 24/12/4 23/160/3 25/158/5 26/14/6
f 26/14/6 25/158/5 27/156/7 28/73/8
s 2
f 12/32/9 1/191/10 107/102/11 106/97/12 99/118/13 98/100/14
f 1/44/10 2/181/15 13/121/16 108/114/17 107/183/11
f 11/172/18 12/192/9 98/185/14 97/95/19 14/136/20
f 2/181/15 3/180/21 15/135/22 13/121/16
f 10/173/23 11/172/18 14/136/20 16/134/24
f 3/180/21 4/179/25 17/133/26 15/135/22
f 9/174/27 10/173/23 16/134/24 18/132/28
f 4/179/25 5/178/29 19/131/30 17/133/26
f 8/175/31 9/174/27 18/132/28 20/130/32
f 5/178/29 6/189/33 80/79/34 79/74/35 19/131/30
f 6/71/33 7/188/36 89/187/37 88/76/38 81/127/39 80/190/34
f 7/41/36 8/175/31 20/130/32 90/123/40 89/81/37
s 3
f 103/141/41 99/99/42 106/116/43 110/104/44
f 109/137/45 108/167/46 13/93/47 21/145/48
f 14/4/49 97/120/50 100/169/51 22/161/52
f 13/93/47 15/5/53 23/11/54 21/145/48
f 16/6/55 14/4/49 22/161/52 24/159/56
f 15/5/53 17/7/57 25/13/58 23/11/54
f 18/8/59 16/6/55 24/159/56 26/157/60
f 17/7/57 19/9/61 27/82/62 25/13/58
f 20/72/63 18/8/59 26/157/60 28/155/64
f 19/9/61 79/129/65 83/165/66 27/82/62
s 6
f 82/151/67 81/78/68 88/125/69 92/84/70
s 3
f 91/147/71 90/163/72 20/72/63 28/155/64
s 7
f 32/17/73 31/209/74 34/49/75 33/18/76
f 31/209/74 30/207/77 35/50/78 34/49/75
f 30/207/77 29/224/79 36/223/80 35/50/78
s 8
f 55/26/81 54/195/82 58/61/83 57/27/84
s 7
f 54/195/85 53/193/86 59/62/87 58/61/88
f 53/193/86 56/218/89 60/217/90 59/62/87
f 1/171/91 32/17/73 33/18/76 2/19/92
f 2/19/92 33/18/76 37/20/93 3/21/94
f 3/21/94 37/20/93 41/22/95 4/23/96
f 4/23/96 41/22/95 45/24/97 5/25/98
f 5/25/98 45/24/97 50/45/99 6/202/100
s 8
f 7/176/101 55/26/81 57/27/84 8/3/102
f 8/3/102 57/27/84 61/28/103 9/2/104
f 9/2/104 61/28/103 65/29/105 10/1/106
f 10/1/106 65/29/105 69/30/107 11/31/108
f 11/31/108 69/30/107 74/46/109 12/211/110
s 7
f 36/34/80 29/15/79 73/203/111 72/33/112
f 36/34/80 72/33/112 68/35/113 40/36/114
f 40/36/114 68/35/113 64/37/115 44/38/116
f 44/38/116 64/37/115 60/39/90 48/40/117
f 48/40/117 60/39/90 56/16/89 49/197/118
s off
f 53/59/119 54/60/120 55/196/121 7/201/122 6/177/123 50/200/124 51/199/125 52/198/126 49/42/127 56/194/128
f 73/43/129 29/208/130 30/47/131 31/48/132 32/210/133 1/212/134 12/170/135 74/206/136 75/205/137 76/204/138
s 7
f 35/50/78 36/223/80 40/222/114 39/52/139
f 33/18/76 34/49/75 38/51/140 37/20/93
f 34/49/75 35/50/78 39/52/139 38/51/140
f 39/52/139 40/222/114 44/221/116 43/54/141
f 37/20/93 38/51/140 42/53/142 41/22/95
f 38/51/140 39/52/139 43/54/141 42/53/142
f 43/54/141 44/221/116 48/219/117 47/56/143
f 41/22/95 42/53/142 46/55/144 45/24/97
f 42/53/142 43/54/141 47/56/143 46/55/144
f 47/56/143 48/219/117 49/220/118 52/58/145
f 45/24/97 46/55/144 51/57/146 50/45/99
f 46/55/144 47/56/143 52/58/145 51/57/146
f 59/62/87 60/217/90 64/216/115 63/64/147
s 8
f 57/27/84 58/61/83 62/63/148 61/28/103
s 7
f 58/61/88 59/62/87 63/64/147 62/63/149
f 63/64/147 64/216/115 68/215/113 67/66/150
s 8
f 61/28/103 62/63/148 66/65/151 65/29/105
s 7
f 62/63/149 63/64/147 67/66/150 66/65/152
f 67/66/150 68/215/113 72/213/112 71/68/153
s 8
f 65/29/105 66/65/151 70/67/154 69/30/107
s 7
f 66/65/152 67/66/150 71/68/153 70/67/155
f 71/68/153 72/213/112 73/214/111 76/70/156
s 8
f 69/30/107 70/67/154 75/69/157 74/46/109
s 7
f 70/67/155 71/68/153 76/70/156 75/69/158
s 3
f 79/164/65 78/128/159 84/87/160 83/83/66
s 6
f 78/128/161 77/126/162 85/88/163 84/87/164
f 77/126/162 81/78/68 82/151/67 85/88/163
f 88/125/69 87/124/165 93/91/166 92/84/70
f 87/124/165 86/122/167 94/92/168 93/91/166
s 3
f 86/122/169 90/80/72 91/162/71 94/92/170
s 2
f 80/190/34 81/127/39 77/146/171
f 80/79/34 77/85/171 78/86/172
f 80/79/34 78/86/172 79/74/35
f 89/81/37 90/123/40 86/89/173
f 89/81/37 86/89/173 87/186/174
f 89/187/37 87/90/174 88/76/38
s 1
f 91/77/175 28/73/8 27/156/7 83/154/176 84/153/177 85/152/178 82/75/179 92/150/180 93/149/181 94/148/182
s 3
f 97/168/50 96/119/183 101/107/184 100/103/51
f 96/119/183 95/117/185 102/108/186 101/107/184
f 95/117/185 99/99/42 103/141/41 102/108/186
f 106/116/43 105/115/187 111/111/188 110/104/44
f 105/115/187 104/113/189 112/112/190 111/111/188
f 104/113/189 108/101/46 109/166/45 112/112/190
s 2
f 98/100/14 99/118/13 95/105/191
f 98/100/14 95/105/191 96/184/192
f 98/185/14 96/106/192 97/95/19
f 107/183/11 108/114/17 104/182/193
f 107/102/11 104/109/193 105/110/194
f 107/102/11 105/110/194 106/97/12
s 1
f 109/98/195 21/94/2 22/10/1 100/144/196 101/143/197 102/142/198 103/96/199 110/140/200 111/139/201 112/138/202
