# This file uses centimeters as units for non-parametric coordinates.

mtllib stairs_obj.mtl
g default
v 0.999556 -1.001219 17.500000
v 1.999556 -1.001219 17.500000
v 0.999556 -0.001219 17.500000
v 0.999556 -0.001219 -17.500000
v 0.999556 -1.001219 -17.500000
v 1.999556 -1.001219 -17.500000
v 0.000000 -1.001219 -17.500000
v 0.000000 -1.001219 17.500000
v 0.000000 -0.001219 17.500000
v 0.000000 -0.001219 -17.500000
v -1.000000 -1.001219 -17.500000
v -1.000000 -1.001219 17.500000
v -1.000000 -0.001219 17.500000
v -1.000000 -0.001219 -17.500000
v -2.000000 -1.001219 -17.500000
v -2.000000 -1.001219 17.500000
v -2.000000 -0.001219 17.500000
v -2.000000 -0.001219 -17.500000
v -3.000000 -1.001219 -17.500000
v -3.000000 -1.001219 17.500000
v -3.000000 -0.001219 17.500000
v -3.000000 -0.001219 -17.500000
v 0.000000 1.000000 -17.500000
v 0.000000 1.000000 17.500000
v -1.000000 2.000000 -17.500000
v -1.000000 2.000000 17.500000
v -2.000000 3.000000 -17.500000
v -2.000000 3.000000 17.500000
v -3.000000 4.000000 -17.500000
v -3.000000 4.000000 17.500000
v 1.972775 -0.101165 17.500000
v 1.899610 -0.027999 17.500000
v 1.799665 -0.001219 17.500000
v 1.999556 -0.201110 17.500000
v 1.999556 -0.201110 -17.500000
v 1.799665 -0.001219 -17.500000
v 1.899610 -0.027999 -17.500000
v 1.972775 -0.101165 -17.500000
v 0.799665 1.000000 17.500000
v 0.999556 0.800109 17.500000
v 0.972776 0.900054 17.500000
v 0.899610 0.973220 17.500000
v 0.799665 1.000000 -17.500000
v 0.899610 0.973220 -17.500000
v 0.972776 0.900054 -17.500000
v 0.999556 0.800109 -17.500000
v -0.199891 2.000000 17.500000
v 0.000000 1.800109 17.500000
v -0.026780 1.900054 17.500000
v -0.099946 1.973220 17.500000
v -0.199891 2.000000 -17.500000
v -0.099946 1.973220 -17.500000
v -0.026780 1.900054 -17.500000
v 0.000000 1.800109 -17.500000
v -1.199891 3.000000 17.500000
v -1.000000 2.800109 17.500000
v -1.026780 2.900054 17.500000
v -1.099946 2.973220 17.500000
v -1.199891 3.000000 -17.500000
v -1.099946 2.973220 -17.500000
v -1.026780 2.900054 -17.500000
v -1.000000 2.800109 -17.500000
v -2.199891 4.000000 17.500000
v -2.000000 3.800109 17.500000
v -2.026780 3.900054 17.500000
v -2.099946 3.973220 17.500000
v -2.199891 4.000000 -17.500000
v -2.099946 3.973220 -17.500000
v -2.026780 3.900054 -17.500000
v -2.000000 3.800109 -17.500000
v -1.000000 0.999390 17.500000
v -2.000000 2.007140 17.500000
v -2.000000 1.005798 17.500000
v -1.000000 0.998594 -17.500000
v -2.000000 1.997989 -17.500000
v -2.000000 0.997439 -17.500000
v -3.000000 3.000467 -17.500000
v -3.000000 2.000092 -17.500000
v -3.000000 1.009791 -17.500000
v -3.000000 1.010677 17.500000
v -3.000000 2.021878 17.500000
v -3.000000 3.011204 17.500000
vt 0.408039 0.363090
vt 0.021736 0.846175
vt 0.931376 0.024966
vt -0.004085 0.051523
vt -0.004089 0.078238
vt 0.310470 0.363090
vt -0.004094 0.104965
vt 0.212857 0.363090
vt -0.004099 0.131693
vt 0.115245 0.363090
vt -0.001403 0.027916
vt 0.019070 0.363090
vt 0.019070 0.459941
vt 0.116873 0.749911
vt 0.310470 0.557232
vt 0.212857 0.655059
vt 0.116873 0.653689
vt 0.115245 0.751858
vt 0.116873 0.557425
vt 0.933610 0.158135
vt 0.116873 0.461160
vt 0.487313 0.459941
vt 0.098492 0.846175
vt 0.389553 0.557232
vt 0.195187 0.749911
vt 0.291837 0.655059
vt -0.002866 0.270368
vt 0.194078 0.751858
vt 0.004383 0.270534
vt 0.096318 0.848748
vt -0.008282 0.270244
vt 0.009525 0.180458
vt 1.625004 0.194786
vt 1.455122 0.303723
vt 0.020524 0.180817
vt 1.614005 0.231357
vt 1.614005 0.194950
vt 0.310470 0.459941
vt 0.008275 0.180419
vt 1.626254 0.231756
vt 1.626254 0.194768
vt 0.212857 0.459941
vt 0.018143 0.180732
vt 1.616386 0.231443
vt 1.616386 0.194907
vt 0.115245 0.459941
vt 0.115245 0.830615
vt -0.001375 0.054145
vt 0.502986 0.365663
vt 1.635287 0.194642
vt 0.505652 0.451541
vt 0.497062 0.459941
vt 1.625004 0.190010
vt 1.625004 0.185234
vt 0.408039 0.548832
vt 0.399303 0.557232
vt 1.614005 0.190239
vt 1.614005 0.185528
vt 0.310470 0.646004
vt 0.301586 0.655059
vt 1.626254 0.189985
vt 1.626254 0.185202
vt 0.212857 0.743176
vt 0.203827 0.751858
vt 1.616386 0.190182
vt 1.616386 0.185457
vt 0.115245 0.840348
vt 0.106067 0.848748
vt 1.635287 0.189806
vt 1.635287 0.184969
vt 1.625004 0.180458
vt 0.108133 0.846175
vt 0.009525 0.185234
vt -0.008808 0.303757
vt 0.116873 0.837849
vt 0.009525 0.190010
vt 0.116872 0.828216
vt 0.009525 0.194786
vt 0.009525 0.231716
vt 1.625004 0.231716
vt 1.614005 0.180817
vt 0.204828 0.749911
vt 0.020524 0.185528
vt 1.455122 0.270265
vt 0.213961 0.741584
vt 0.020524 0.190239
vt 0.213961 0.731952
vt 0.020524 0.194950
vt 0.213961 0.653689
vt 0.020524 0.231357
vt -0.006241 0.303723
vt -0.006241 0.270265
vt 0.408039 0.459941
vt 0.408039 0.539099
vt 1.626254 0.180419
vt 0.301405 0.653689
vt 0.008275 0.185202
vt 0.310470 0.636271
vt 0.309993 0.645363
vt 0.008275 0.189985
vt 0.309993 0.635730
vt 0.008275 0.194768
vt 0.309993 0.557425
vt 0.008275 0.231756
vt 0.212857 0.557232
vt 1.616386 0.180732
vt 0.397982 0.557425
vt 0.018143 0.185457
vt 0.212857 0.733443
vt 0.406510 0.549098
vt 0.018143 0.190182
vt 0.406509 0.539466
vt 0.018143 0.194907
vt 0.406509 0.461160
vt 0.018143 0.231443
vt 0.115245 0.655059
vt 0.115245 0.557232
vt 0.213961 0.557425
vt 0.309993 0.461160
vt 0.213961 0.461160
vt -0.001292 0.132877
vt -0.001319 0.106638
vt -0.001347 0.080663
vt 0.933526 0.079728
vt 0.933555 0.106251
vt 0.933582 0.132200
vt 1.457161 0.270244
vt 1.457161 0.303745
vt -0.008282 0.303745
vt 1.635287 0.180132
vt 0.484917 0.461160
vt 0.494558 0.461160
vt -0.000759 0.184969
vt -0.000759 0.180132
vt 0.502986 0.452834
vt -0.000759 0.189806
vt 0.502986 0.443201
vt -0.000759 0.194642
vt 1.635287 0.232043
vt -0.000759 0.232043
vt 1.444497 0.270534
vt 1.444497 0.303455
vt 0.004383 0.303455
vt 0.388341 0.557425
vt 1.451747 0.270368
vt 1.451747 0.303621
vt 0.291764 0.653689
vt -0.002866 0.303621
vt 1.457688 0.303757
vt 1.457688 0.270232
vt -0.008808 0.270232
vt 0.505652 0.441808
vt -0.004104 0.158420
vt 0.931352 0.158591
vt 0.931357 0.131864
vt 0.021736 0.461160
vt 0.931361 0.105136
vt 0.021736 0.557425
vt 0.931366 0.078409
vt 0.021736 0.653689
vt 0.931371 0.051694
vt 0.021736 0.749911
vt -0.004080 0.024795
vt 0.505652 0.363090
vt 0.019070 0.751858
vt 0.019070 0.848748
vt 0.019070 0.655059
vt 0.019070 0.557232
vt 0.213961 0.365663
vt 0.309993 0.365663
vt 0.406509 0.365663
vt -0.001264 0.159093
vt 0.933498 0.053186
vt 0.116873 0.365663
vt 0.021736 0.365663
vt 0.933470 0.026957
vn 0.000000 1.000000 0.000000
vn 0.029741 0.999558 0.000000
vn 0.029741 0.999558 0.000000
vn 0.000000 1.000000 0.000000
vn 0.000000 -1.000000 0.000000
vn 0.000000 -1.000000 0.000000
vn 0.000000 -1.000000 0.000000
vn 0.000000 -1.000000 0.000000
vn 1.000000 0.000000 0.000000
vn 1.000000 0.000000 0.000000
vn 0.999558 0.029741 0.000000
vn 0.999558 0.029741 0.000000
vn -1.000000 0.000000 0.000000
vn -1.000000 0.000000 0.000000
vn -1.000000 0.000000 0.000000
vn -1.000000 0.000000 0.000000
vn 0.000000 -1.000000 0.000000
vn 0.000000 -1.000000 0.000000
vn 0.000000 -1.000000 0.000000
vn 0.000000 -1.000000 0.000000
vn -0.000001 0.000000 1.000000
vn -0.000000 0.000000 1.000000
vn 0.000000 0.000000 1.000000
vn 0.000000 0.000000 1.000000
vn 0.029756 0.999557 0.000000
vn 0.029756 0.999557 0.000000
vn 0.000000 1.000000 0.000000
vn 0.000000 1.000000 0.000000
vn -0.000000 0.000000 -1.000000
vn -0.000000 0.000000 -1.000000
vn 0.000000 0.000000 -1.000000
vn 0.000000 0.000000 -1.000000
vn 0.000000 -1.000000 0.000000
vn 0.000000 -1.000000 0.000000
vn 0.000000 -1.000000 0.000000
vn 0.000000 -1.000000 0.000000
vn 0.000000 0.000000 1.000000
vn -0.000001 0.000000 1.000000
vn -0.000001 0.000000 1.000000
vn 0.000000 0.000000 1.000000
vn 0.029741 0.999558 0.000000
vn 0.029741 0.999558 0.000000
vn 0.000000 1.000000 0.000000
vn 0.000000 1.000000 0.000000
vn 0.000000 0.000000 -1.000000
vn 0.000000 0.000000 -1.000000
vn 0.000000 0.000000 -1.000000
vn 0.000000 0.000000 -1.000000
vn 0.000000 -1.000000 0.000000
vn 0.000000 -1.000000 0.000000
vn 0.000000 -1.000000 0.000000
vn 0.000000 -1.000000 0.000000
vn 0.000000 0.000000 1.000000
vn 0.000000 0.000000 1.000000
vn 0.000000 0.000000 1.000000
vn 0.000000 0.000000 1.000000
vn 0.029741 0.999558 0.000000
vn 0.029741 0.999558 0.000000
vn 0.000000 1.000000 0.000000
vn 0.000000 1.000000 0.000000
vn 0.000000 0.000000 -1.000000
vn 0.000000 0.000000 -1.000000
vn 0.000000 0.000000 -1.000000
vn 0.000000 0.000000 -1.000000
vn 0.000000 -1.000000 0.000000
vn 0.000000 -1.000000 0.000000
vn 0.000000 -1.000000 0.000000
vn 0.000000 -1.000000 0.000000
vn 0.000000 0.000000 1.000000
vn 0.000001 0.000000 1.000000
vn 0.000001 0.000000 1.000000
vn 0.000000 0.000000 1.000000
vn 0.029741 0.999558 0.000000
vn 0.029741 0.999558 0.000000
vn 0.000000 1.000000 0.000000
vn 0.000000 1.000000 0.000000
vn 0.000000 0.000000 -1.000000
vn 0.000000 0.000000 -1.000000
vn 0.000000 0.000000 -1.000000
vn 0.000000 0.000000 -1.000000
vn 1.000000 0.000000 0.000000
vn 1.000000 0.000000 0.000000
vn 0.999559 0.029701 0.000000
vn 0.999559 0.029701 0.000000
vn -1.000000 0.000000 0.000000
vn -1.000000 0.000000 0.000000
vn -1.000000 0.000000 0.000000
vn -1.000000 0.000000 0.000000
vn 0.258819 0.965926 0.000000
vn 0.258819 0.965926 0.000000
vn 0.707107 0.707106 0.000000
vn 0.866026 0.500000 0.000000
vn 0.866026 0.500000 0.000000
vn 0.707107 0.707106 0.000000
vn 0.258819 0.965926 0.000000
vn 0.258819 0.965926 0.000000
vn 0.707107 0.707107 0.000000
vn 0.707107 0.707107 0.000000
vn 0.707107 0.707107 0.000000
vn 0.707107 0.707107 0.000000
vn 0.965926 0.258819 0.000000
vn 0.965926 0.258819 0.000000
vn 0.500000 0.866026 0.000000
vn 0.500000 0.866026 0.000000
vn 0.707107 0.707107 0.000000
vn 0.707107 0.707107 0.000000
vn 0.965926 0.258819 0.000000
vn 0.997903 0.029692 0.057513
vn 0.997902 0.029692 -0.057536
vn 0.965926 0.258819 0.000000
vn 0.500000 0.866026 0.000000
vn 0.500000 0.866026 0.000000
vn 0.866025 0.500001 0.000000
vn 0.866025 0.500001 0.000000
vn 0.997916 0.029692 0.057289
vn 0.997901 0.029692 -0.057554
vn 0.500001 0.866025 0.000000
vn 0.500001 0.866025 0.000000
vn 0.866025 0.500000 0.000000
vn 0.866025 0.500000 0.000000
vn 0.997923 0.029692 0.057171
vn 0.997905 0.029692 -0.057482
vn -0.000001 0.000000 1.000000
vn -0.000001 0.000000 1.000000
vn -0.000001 0.000000 1.000000
vn -0.000001 0.000000 1.000000
vn -0.000001 0.000000 1.000000
vn -0.000001 0.000000 -1.000000
vn -0.000001 0.000000 -1.000000
vn -0.000001 0.000000 -1.000000
vn -0.000001 0.000000 -1.000000
vn -0.000001 0.000000 -1.000000
vn 0.000000 0.000000 1.000000
vn 0.000000 0.000000 1.000000
vn 0.000000 0.000000 1.000000
vn 0.000000 0.000000 1.000000
vn 0.000000 0.000000 1.000000
vn 0.000000 0.000000 -1.000000
vn 0.000000 0.000000 -1.000000
vn 0.000000 0.000000 -1.000000
vn 0.000000 0.000000 -1.000000
vn 0.000000 0.000000 -1.000000
vn 0.997482 0.000000 -0.070926
vn 0.000001 0.000000 -1.000000
vn 0.000001 0.000000 -1.000000
vn 0.000001 0.000000 -1.000000
vn 0.000001 0.000000 -1.000000
vn 0.000001 0.000000 -1.000000
vn 0.997491 0.000000 0.070794
vn 0.997480 0.000000 -0.070953
vn 0.997521 -0.000000 0.070371
vn 0.997482 -0.000000 -0.070918
vn 0.997482 0.000000 0.070926
vn -0.000001 0.000000 1.000000
vn -0.000001 0.000000 1.000000
vn -0.000001 0.000000 1.000000
vn -0.000001 0.000000 1.000000
vn -0.000001 0.000000 1.000000
vn 0.000000 0.000000 1.000000
vn 0.000000 0.000000 1.000000
vn 0.000000 0.000000 1.000000
vn 0.000000 0.000000 1.000000
vn 0.000000 0.000000 1.000000
vn 0.000000 0.000000 1.000000
vn 0.000000 0.000000 1.000000
vn 0.000001 0.000000 -1.000000
vn 0.000001 0.000000 -1.000000
vn 0.000001 0.000000 -1.000000
vn 0.000001 0.000000 -1.000000
vn 0.000001 0.000000 -1.000000
vn -0.000001 0.000000 -1.000000
vn -0.000000 0.000000 -1.000000
vn -0.000000 0.000000 -1.000000
vn -0.000000 0.000000 -1.000000
vn -0.000000 0.000000 -1.000000
vn 0.000000 0.000000 -1.000000
vn 0.000000 0.000000 -1.000000
vn -0.000001 0.000000 -1.000000
vn -0.000001 0.000000 -1.000000
vn 0.000000 0.000000 -1.000000
vn 0.000000 0.000000 -1.000000
vn 0.000001 0.000000 1.000000
vn 0.000001 0.000000 1.000000
vn 0.000000 0.000000 1.000000
vn 0.000000 0.000000 1.000000
vn 0.000000 0.000000 1.000000
vn 0.000000 0.000000 1.000000
vn 0.000000 0.000000 1.000000
vn 0.000000 0.000000 1.000000
vn 0.000000 0.000000 1.000000
vn -1.000000 0.000000 0.000000
vn -1.000000 0.000000 0.000000
vn -1.000000 0.000000 0.000000
vn -1.000000 0.000000 0.000000
vn -1.000000 0.000000 0.000000
vn -1.000000 0.000000 0.000000
s 1
g pCube2
usemtl initialShadingGroup
f 3/79/1 33/78/2 36/33/3 4/80/4
s off
f 5/4/5 6/163/6 2/3/7 1/161/8
s 2
f 2/151/9 6/150/10 35/149/11 34/74/12
s off
f 19/11/13 20/176/14 21/173/15 22/48/16
f 5/4/17 1/161/18 8/159/19 7/5/20
s 3
f 1/1/21 3/93/22 9/38/23 8/6/24
s 4
f 39/88/25 43/37/26 23/36/27 24/90/28
s 5
f 4/14/29 5/162/30 7/160/31 10/17/32
s off
f 7/5/33 8/159/34 12/157/35 11/7/36
s 6
f 8/6/37 9/38/38 13/42/39 12/8/40
s 7
f 47/102/41 51/41/42 25/40/43 26/104/44
s 6
f 10/17/45 7/160/46 11/158/47 14/19/48
s off
f 11/7/49 12/157/50 16/155/51 15/9/52
s 9
f 12/8/53 13/42/54 17/46/55 16/10/56
f 55/113/57 59/45/58 27/44/59 28/115/60
f 14/19/61 11/158/62 15/156/63 18/21/64
s off
f 15/9/65 16/155/66 20/154/67 19/153/68
s 12
f 16/10/69 17/46/70 21/13/71 20/12/72
f 63/138/73 67/50/74 29/139/75 30/140/76
f 18/21/77 15/156/78 19/175/79 22/174/80
s 15
f 3/34/81 4/91/82 46/92/83 40/84/84
s 16
f 79/123/85 80/124/86 81/125/87 78/122/88
s 1
f 33/78/2 32/76/89 37/53/90 36/33/3
s 2
f 32/76/91 31/73/92 38/54/93 37/53/94
f 31/73/92 34/32/12 35/71/11 38/54/93
s 4
f 39/88/25 42/86/95 44/57/96 43/37/26
s off
f 42/86/97 41/83/98 45/58/99 44/57/100
s 15
f 41/83/101 40/35/84 46/81/83 45/58/102
s 7
f 47/102/41 50/100/103 52/61/104 51/41/42
f 50/100/103 49/97/105 53/62/106 52/61/104
s 6
f 49/97/107 48/39/108 54/95/109 53/62/110
s 9
f 55/113/57 58/111/111 60/65/112 59/45/58
f 58/111/111 57/108/113 61/66/114 60/65/112
f 57/108/113 56/43/115 62/106/116 61/66/114
s 12
f 63/138/73 66/136/117 68/69/118 67/50/74
f 66/136/117 65/133/119 69/70/120 68/69/118
f 65/133/119 64/134/121 70/130/122 69/70/120
s 3
f 31/51/123 32/52/124 33/22/125 3/93/22 1/1/21 2/164/126 34/152/127
s 5
f 35/23/128 6/2/129 5/162/30 4/14/29 36/77/130 37/75/131 38/72/132
s 3
f 39/24/133 24/15/134 9/38/23 3/93/22 40/94/135 41/55/136 42/56/137
s 5
f 4/14/29 10/17/32 23/89/138 43/87/139 44/85/140 45/82/141 46/25/142
s 6
f 54/147/109 23/89/143 74/118/144 25/103/145 51/101/146 52/99/147 53/96/148
s 9
f 62/29/116 56/141/115 26/142/149 25/143/150
s 12
f 64/127/121 28/128/151 27/129/152 70/31/122
s 6
f 24/15/153 71/105/154 13/42/39 9/38/38
f 48/98/108 49/59/155 50/60/156 47/26/157 26/16/158 71/105/154 24/15/153
s 9
f 71/105/159 73/117/160 17/46/55 13/42/54
f 56/109/115 57/63/161 58/64/162 55/28/163 28/18/164 72/116/165 26/16/149
f 26/16/149 72/116/165 73/117/160 71/105/159
s 6
f 54/27/109 48/145/108 24/146/153 23/148/143
s 9
f 62/144/116 25/103/150 75/119/166 27/114/167 59/112/168 60/110/169 61/107/170
s 6
f 74/118/144 23/89/143 10/17/45 14/19/48
s 12
f 70/131/122 27/114/152 77/171/171 29/49/172 67/137/173 68/135/174 69/132/175
s 9
f 75/119/166 25/103/150 74/118/176 76/120/177
f 76/120/177 74/118/176 14/19/61 18/21/64
s 12
f 77/171/171 27/114/152 75/119/178 78/170/179
f 78/170/179 75/119/178 76/120/180 79/169/181
f 79/169/181 76/120/180 18/21/77 22/174/80
f 73/117/182 80/168/183 21/13/71 17/46/70
f 72/116/184 81/167/185 80/168/183 73/117/182
f 28/18/151 82/165/186 81/167/185 72/116/184
f 64/47/121 65/67/187 66/68/188 63/30/189 30/166/190 82/165/186 28/18/151
s 16
f 22/48/191 21/173/192 80/124/86 79/123/85
f 77/121/193 82/126/194 30/20/195 29/172/196
f 78/122/88 81/125/87 82/126/194 77/121/193
